<?xml version="1.0" encoding="UTF-8"?>
<svg version="1.1" xmlns="http://www.w3.org/2000/svg" width="500" height="500">
<path d="M0 0 C-2.09989949 2.3060744 -3.92078543 3.59952321 -6.7890625 4.8046875 C-7.55259033 5.13364014 -8.31611816 5.46259277 -9.1027832 5.80151367 C-10.35128052 6.3328894 -10.35128052 6.3328894 -11.625 6.875 C-67.20352224 31.29609762 -117.20233455 68.46346846 -161.52001953 109.63330078 C-162.98182547 110.98321659 -164.45764918 112.31790119 -165.93359375 113.65234375 C-172.93693138 119.99541506 -179.68371549 126.57886261 -186.375 133.25 C-187.21933594 134.08974365 -188.06367188 134.9294873 -188.93359375 135.79467773 C-193.21475558 140.0864407 -197.33750812 144.44670929 -201.28857422 149.04345703 C-204.3731073 152.56976917 -207.64001796 155.92482525 -210.875 159.3125 C-216.16572551 164.88930897 -221.22202357 170.51877165 -226.00390625 176.5390625 C-228.04311169 179.0531514 -230.18262552 181.43132701 -232.375 183.8125 C-236.89653512 188.78070323 -241.01152206 194.00803577 -245.125 199.3125 C-247.49037534 202.36106276 -249.90462465 205.36612016 -252.33520508 208.36279297 C-259.87414903 217.67465334 -266.98371587 227.29026936 -274 237 C-274.75297363 238.04043457 -275.50594727 239.08086914 -276.28173828 240.15283203 C-282.58313374 248.89525548 -288.65184249 257.7807477 -294.625 266.75 C-295.09512512 267.45446259 -295.56525024 268.15892517 -296.04962158 268.88473511 C-305.04708316 282.38244764 -313.64427335 296.09626034 -322 310 C-323.99294628 307.01058058 -325.20070627 304.25359252 -326.5390625 300.92578125 C-327.03301514 299.70858398 -327.52696777 298.49138672 -328.03588867 297.23730469 C-328.29518158 296.59611694 -328.55447449 295.9549292 -328.82162476 295.29431152 C-333.15972795 284.59283302 -337.60265153 274.0191992 -343.0390625 263.8203125 C-344.06223855 261.88210096 -345.04812275 259.92755656 -346.03125 257.96875 C-360.64112274 229.17850927 -380.65031416 203.08770262 -402 179 C-402.82371094 178.06285156 -403.64742188 177.12570312 -404.49609375 176.16015625 C-410.31275384 169.67341692 -416.4101538 163.46330196 -422.54544067 157.27932739 C-423.95609093 155.85677941 -425.3627551 154.43028212 -426.76928711 153.00366211 C-432.10455069 147.66172051 -437.60013491 142.72363071 -443.49560547 138.00756836 C-446.76553998 135.38632918 -449.91002655 132.63495496 -453.0625 129.875 C-457.92502052 125.64502436 -462.88161388 121.80963219 -468.3046875 118.3046875 C-468.86414063 117.87414062 -469.42359375 117.44359375 -470 117 C-470 116.34 -470 115.68 -470 115 C-441.64450329 121.24408606 -414.22450149 130.51657833 -388 143 C-387.02353516 143.45246094 -387.02353516 143.45246094 -386.02734375 143.9140625 C-366.58186707 152.92637111 -347.48932102 164.2214534 -330.75097656 177.60644531 C-328.28800526 179.56665728 -325.78566611 181.47395929 -323.28466797 183.38525391 C-320.84927165 185.2476158 -318.42450963 187.12349597 -316 189 C-312.27138811 185.31919082 -308.67278625 181.54239436 -305.125 177.6875 C-304.63386719 177.15705078 -304.14273438 176.62660156 -303.63671875 176.08007812 C-300.97963941 173.19869988 -298.3766277 170.28231187 -295.8215332 167.31005859 C-291.96010068 162.89229385 -287.8761485 158.73175892 -283.72265625 154.58984375 C-282.95247665 153.81870743 -282.18229706 153.04757111 -281.38877869 152.25306702 C-279.77058627 150.63419847 -278.15114788 149.01657449 -276.53051758 147.40014648 C-274.06932768 144.94431282 -271.61352191 142.48318635 -269.15820312 140.02148438 C-267.57584133 138.43978347 -265.99316933 136.85839283 -264.41015625 135.27734375 C-263.68594986 134.55111313 -262.96174347 133.82488251 -262.21559143 133.0766449 C-257.63660378 128.51834927 -252.90769577 124.20103744 -248 120 C-246.89390301 119.03848265 -245.78832761 118.07636446 -244.68359375 117.11328125 C-188.0766337 68.14890849 -122.29811374 29.29184977 -50 9 C-49.12375977 8.75169434 -48.24751953 8.50338867 -47.34472656 8.24755859 C-32.30950172 4.05107321 -15.67342755 -0.31540681 0 0 Z " fill="#00C2CB" transform="translate(493,91)"/>
<path d="M0 0 C7.1302114 6.50255195 14.2156371 13.21064784 20.109375 20.87109375 C18.74757474 24.09812689 17.4494585 25.62868644 14.50390625 27.5 C13.77413574 27.97276367 13.04436523 28.44552734 12.29248047 28.93261719 C11.11903076 29.67560059 11.11903076 29.67560059 9.921875 30.43359375 C1.41464512 35.94928915 -6.778542 41.79301386 -14.890625 47.87109375 C-19.11241502 46.25509757 -21.73760601 43.07865947 -24.765625 39.87109375 C-42.0075588 22.2183466 -66.17367816 9.59443936 -90.890625 6.87109375 C-92.05207031 6.73832031 -93.21351563 6.60554688 -94.41015625 6.46875 C-125.62934484 3.69855281 -155.46396303 12.95816605 -179.828125 32.49609375 C-195.1494318 45.49463683 -206.20800362 61.30475874 -213.890625 79.87109375 C-221.81796307 77.72122339 -229.732103 75.52660505 -237.640625 73.30859375 C-238.72472656 73.00501953 -239.80882812 72.70144531 -240.92578125 72.38867188 C-246.25133837 70.89634543 -251.57473541 69.39751348 -256.890625 67.87109375 C-256.37843015 61.86080735 -254.52014853 57.20635421 -251.890625 51.80859375 C-251.48618164 50.97223389 -251.08173828 50.13587402 -250.66503906 49.27416992 C-231.28378603 9.98916693 -196.79537241 -18.35550563 -155.671875 -32.59375 C-102.29400076 -50.20283432 -41.87320894 -37.14936042 0 0 Z " fill="#003479" transform="translate(284.890625,121.12890625)"/>
<path d="M0 0 C4.79317621 41.71177992 -5.28872614 85.01634616 -31.4375 118.375 C-33.25263574 120.61825517 -35.11250006 122.8174157 -37 125 C-37.48082031 125.55913086 -37.96164062 126.11826172 -38.45703125 126.69433594 C-66.13435013 158.55246354 -103.60956213 175.93178312 -145 181 C-144.37781112 177.97445409 -143.39457837 175.71841585 -141.77734375 173.09375 C-141.32552734 172.35624512 -140.87371094 171.61874023 -140.40820312 170.85888672 C-139.92287109 170.0804541 -139.43753906 169.30202148 -138.9375 168.5 C-138.43798828 167.69191895 -137.93847656 166.88383789 -137.42382812 166.05126953 C-133.42043842 159.60550376 -129.28772701 153.26055873 -125 147 C-124.56123535 146.35756348 -124.1224707 145.71512695 -123.67041016 145.05322266 C-117.72445195 136.35018871 -117.72445195 136.35018871 -115.28955078 132.86938477 C-114.43252031 131.62699886 -113.59716578 130.3693678 -112.78466797 129.09741211 C-109.92225689 124.74721697 -107.23394942 122.5924766 -102.5 120.1875 C-75.44076159 105.72746177 -58.84489373 81.40102676 -49 53 C-48.81195801 52.35377686 -48.62391602 51.70755371 -48.43017578 51.04174805 C-46.51935813 45.01096004 -43.02765351 41.25234157 -38.625 36.8125 C-37.91762695 36.07999023 -37.21025391 35.34748047 -36.48144531 34.59277344 C-31.44326632 29.39637438 -26.33879638 24.25765933 -21.16259766 19.19848633 C-18.9308634 17.00659142 -16.84964147 14.8119821 -14.89453125 12.3671875 C-13.05812352 10.07262443 -11.17875186 8.26646111 -8.9375 6.375 C-6.99901776 4.73045269 -5.12780701 3.13489029 -3.37890625 1.2890625 C-2 0 -2 0 0 0 Z " fill="#003479" transform="translate(338,220)"/>
<path d="M0 0 C5.21354847 2.782773 9.52776931 5.894001 13.9375 9.8125 C14.57647217 10.37364502 15.21544434 10.93479004 15.8737793 11.51293945 C22.1440365 17.05627657 28.28535367 22.73728639 34.328125 28.52734375 C36.5004643 30.60758748 38.67650754 32.56759337 40.984375 34.50390625 C48.11135216 40.71301514 50.38017102 47.45936486 53.296875 56.171875 C57.33185181 68.05107247 64.08401457 78.33703848 72 88 C72.68578125 88.85078125 73.3715625 89.7015625 74.078125 90.578125 C80.63859817 98.30490451 88.81260373 105.53469992 97.69921875 110.51171875 C114.7278901 120.08177721 125.23946587 151.20014886 131 169 C130.67 169.99 130.34 170.98 130 172 C88.71128617 163.77472542 51.20844445 140.72084638 27.37109375 105.65234375 C16.52332573 89.18737837 8.03354941 71.36253748 3.50390625 52.13671875 C3.03962331 50.16801511 2.53717415 48.20841605 2.03125 46.25 C-1.30856866 31.15896755 -0.26515132 15.36925802 0 0 Z " fill="#003479" transform="translate(19,227)"/>
<path d="M0 0 C9.638586 7.12793635 15.70557987 16.10458348 17.82421875 27.890625 C19.34680751 39.83182672 16.79355314 50.35878167 10.015625 60.26953125 C3.91761549 68.01061554 -5.06646297 73.20996973 -14.640625 75.3046875 C-23.32441781 76.07065138 -31.59899142 76.04234818 -39.640625 72.3046875 C-40.31222656 72.03785156 -40.98382813 71.77101563 -41.67578125 71.49609375 C-51.01483266 67.44737204 -57.57685207 59.2599462 -61.609375 50.10546875 C-65.28438265 39.81204454 -65.2332395 27.29533769 -60.640625 17.3046875 C-54.90410235 7.03499321 -46.02438777 -1.83454645 -34.48046875 -5.22265625 C-22.43538588 -7.2274087 -10.45384917 -6.71149488 0 0 Z " fill="#00C2CB" transform="translate(201.640625,163.6953125)"/>
</svg>
